<svg width="23" height="21" viewBox="0 0 23 21" fill="none" xmlns="http://www.w3.org/2000/svg">
<path d="M18.4478 3.10187H4.55192C3.49337 3.10187 2.63525 3.88537 2.63525 4.85187V16.1481C2.63525 17.1146 3.49337 17.8981 4.55192 17.8981H18.4478C19.5063 17.8981 20.3644 17.1146 20.3644 16.1481V4.85187C20.3644 3.88537 19.5063 3.10187 18.4478 3.10187Z" stroke="black" stroke-width="0.458333" stroke-linecap="round" stroke-linejoin="round"/>
<path d="M4.59863 15.5969C8.48084 7.16627 13.789 12.2561 17.2582 15.6774C17.5256 15.9412 18.4303 15.0623 18.4303 15.0623" stroke="black" stroke-width="0.458333" stroke-linecap="round" stroke-linejoin="round"/>
<path d="M15.2213 9.21722C15.983 9.21722 16.6004 8.6535 16.6004 7.9581C16.6004 7.2627 15.983 6.69897 15.2213 6.69897C14.4597 6.69897 13.8423 7.2627 13.8423 7.9581C13.8423 8.6535 14.4597 9.21722 15.2213 9.21722Z" stroke="black" stroke-width="0.458333" stroke-linecap="round" stroke-linejoin="round"/>
</svg>
