<svg width="22" height="21" viewBox="0 0 22 21" fill="none" xmlns="http://www.w3.org/2000/svg">
<path d="M17.6688 6.10313L12.8563 1.50937C12.7188 1.37812 12.5813 1.3125 12.375 1.3125H5.5C4.74375 1.3125 4.125 1.90312 4.125 2.625V18.375C4.125 19.0969 4.74375 19.6875 5.5 19.6875H16.5C17.2563 19.6875 17.875 19.0969 17.875 18.375V6.5625C17.875 6.36562 17.8063 6.23438 17.6688 6.10313ZM12.375 2.8875L16.225 6.5625H12.375V2.8875ZM16.5 18.375H5.5V2.625H11V6.5625C11 7.28438 11.6188 7.875 12.375 7.875H16.5V18.375Z" fill="#AAA9A9"/>
<path d="M6.875 14.4375H15.125V15.75H6.875V14.4375ZM6.875 10.5H15.125V11.8125H6.875V10.5Z" fill="#AAA9A9"/>
</svg>
