<svg width="69" height="63" viewBox="0 0 69 63" fill="none" xmlns="http://www.w3.org/2000/svg">
<ellipse cx="34.5" cy="31.5" rx="34.5" ry="31.5" fill="white"/>
<path d="M37.7501 35.5V36.1875C37.7501 36.9168 37.4604 37.6163 36.9446 38.132C36.4289 38.6478 35.7294 38.9375 35.0001 38.9375C34.2707 38.9375 33.5713 38.6478 33.0555 38.132C32.5398 37.6163 32.2501 36.9168 32.2501 36.1875V35.5M42.377 34.1005C41.2735 32.75 40.4945 32.0625 40.4945 28.3393C40.4945 24.9297 38.7534 23.715 37.3204 23.125C37.1301 23.0468 36.9509 22.8672 36.8929 22.6717C36.6415 21.8162 35.9368 21.0625 35.0001 21.0625C34.0634 21.0625 33.3583 21.8166 33.1095 22.6725C33.0515 22.8702 32.8723 23.0468 32.6819 23.125C31.2472 23.7158 29.5078 24.9263 29.5078 28.3393C29.5057 32.0625 28.7267 32.75 27.6232 34.1005C27.166 34.66 27.5665 35.5 28.3661 35.5H41.6383C42.4337 35.5 42.8316 34.6574 42.377 34.1005Z" stroke="black" stroke-width="1.375" stroke-linecap="round" stroke-linejoin="round"/>
</svg>
