<svg width="21" height="20" viewBox="0 0 21 20" fill="none" xmlns="http://www.w3.org/2000/svg">
<path d="M18.6268 2.75999C19.4744 3.56977 19.9504 4.66656 19.9504 5.80999C19.9504 6.95343 19.4744 8.05022 18.6268 8.85999L17.0203 10.38C15.8443 11.5 14.1853 11.85 12.6733 11.47L15.4243 8.85999L16.2223 8.08999L17.0203 7.32999C17.9023 6.48999 17.9023 5.12999 17.0203 4.28999C16.8121 4.08802 16.5637 3.92759 16.2897 3.81807C16.0156 3.70855 15.7214 3.65214 15.4243 3.65214C15.1271 3.65214 14.8329 3.70855 14.5588 3.81807C14.2848 3.92759 14.0364 4.08802 13.8283 4.28999L13.0198 5.04999L9.47076 8.42999C9.08226 6.98999 9.44976 5.40999 10.6258 4.28999L12.2218 2.75999C13.072 1.95271 14.2236 1.49939 15.4243 1.49939C16.6249 1.49939 17.7765 1.95271 18.6268 2.75999ZM9.01926 13.43L14.6263 8.08999C15.0673 7.66999 15.0673 6.98999 14.6263 6.56999C14.1643 6.13999 13.4398 6.17999 13.0198 6.56999L7.42326 11.91C6.98226 12.33 6.98226 13.01 7.42326 13.43C7.88526 13.86 8.60976 13.82 9.01926 13.43ZM8.22126 15.72L12.5683 11.57C12.9673 13.01 12.5998 14.59 11.4238 15.71L9.82776 17.24C8.97749 18.0473 7.82586 18.5006 6.62526 18.5006C5.42465 18.5006 4.27302 18.0473 3.42276 17.24C2.57511 16.4302 2.09912 15.3334 2.09912 14.19C2.09912 13.0466 2.57511 11.9498 3.42276 11.14L5.02926 9.61999C6.20526 8.49999 7.86426 8.14999 9.37626 8.51999L5.02926 12.67C4.13676 13.51 4.13676 14.87 5.02926 15.72C5.91126 16.56 7.33926 16.56 8.22126 15.72Z" fill="#AAA9A9"/>
</svg>
