<svg width="22" height="22" viewBox="0 0 22 22" fill="none" xmlns="http://www.w3.org/2000/svg">
<path d="M10.4502 7.14995C10.4502 7.00408 10.3923 6.86419 10.2891 6.76104C10.186 6.6579 10.0461 6.59995 9.9002 6.59995C9.75433 6.59995 9.61443 6.6579 9.51129 6.76104C9.40814 6.86419 9.3502 7.00408 9.3502 7.14995V9.34995H7.1502C7.00433 9.34995 6.86443 9.4079 6.76129 9.51104C6.65814 9.61419 6.6002 9.75408 6.6002 9.89995C6.6002 10.0458 6.65814 10.1857 6.76129 10.2889C6.86443 10.392 7.00433 10.45 7.1502 10.45H9.3502V12.65C9.3502 12.7958 9.40814 12.9357 9.51129 13.0389C9.61443 13.142 9.75433 13.2 9.9002 13.2C10.0461 13.2 10.186 13.142 10.2891 13.0389C10.3923 12.9357 10.4502 12.7958 10.4502 12.65V10.45H12.6502C12.7961 10.45 12.936 10.392 13.0391 10.2889C13.1423 10.1857 13.2002 10.0458 13.2002 9.89995C13.2002 9.75408 13.1423 9.61419 13.0391 9.51104C12.936 9.4079 12.7961 9.34995 12.6502 9.34995H10.4502V7.14995ZM4.9502 2.19995C4.22085 2.19995 3.52138 2.48968 3.00565 3.00541C2.48993 3.52113 2.2002 4.22061 2.2002 4.94995V14.85C2.2002 15.5793 2.48993 16.2788 3.00565 16.7945C3.52138 17.3102 4.22085 17.6 4.9502 17.6H14.8502C15.5795 17.6 16.279 17.3102 16.7947 16.7945C17.3105 16.2788 17.6002 15.5793 17.6002 14.85V4.94995C17.6002 4.22061 17.3105 3.52113 16.7947 3.00541C16.279 2.48968 15.5795 2.19995 14.8502 2.19995H4.9502ZM3.3002 4.94995C3.3002 4.51234 3.47403 4.09266 3.78347 3.78323C4.0929 3.47379 4.51259 3.29995 4.9502 3.29995H14.8502C15.2878 3.29995 15.7075 3.47379 16.0169 3.78323C16.3264 4.09266 16.5002 4.51234 16.5002 4.94995V14.85C16.5002 15.2876 16.3264 15.7072 16.0169 16.0167C15.7075 16.3261 15.2878 16.5 14.8502 16.5H4.9502C4.51259 16.5 4.0929 16.3261 3.78347 16.0167C3.47403 15.7072 3.3002 15.2876 3.3002 14.85V4.94995ZM8.2502 19.8C7.24253 19.8001 6.27496 19.4052 5.5552 18.7H15.9502C16.6795 18.7 17.379 18.4102 17.8947 17.8945C18.4105 17.3788 18.7002 16.6793 18.7002 15.95V5.55495C19.3811 6.25015 19.8002 7.20055 19.8002 8.24995V15.95C19.8002 16.971 19.3946 17.9503 18.6726 18.6723C17.9505 19.3943 16.9713 19.8 15.9502 19.8H8.2502Z" fill="black"/>
</svg>
