<svg width="22" height="22" viewBox="0 0 22 22" fill="none" xmlns="http://www.w3.org/2000/svg">
<g clip-path="url(#clip0_40_157)">
<path d="M6.41659 12.8334C6.90282 12.8334 7.36913 12.6403 7.71295 12.2964C8.05676 11.9526 8.24992 11.4863 8.24992 11.0001C8.24992 10.5139 8.05676 10.0475 7.71295 9.70372C7.36913 9.3599 6.90282 9.16675 6.41659 9.16675C5.93036 9.16675 5.46404 9.3599 5.12022 9.70372C4.77641 10.0475 4.58325 10.5139 4.58325 11.0001C4.58325 11.4863 4.77641 11.9526 5.12022 12.2964C5.46404 12.6403 5.93036 12.8334 6.41659 12.8334ZM12.8333 11.0001C12.8333 11.4863 12.6401 11.9526 12.2963 12.2964C11.9525 12.6403 11.4861 12.8334 10.9999 12.8334C10.5137 12.8334 10.0474 12.6403 9.70356 12.2964C9.35974 11.9526 9.16659 11.4863 9.16659 11.0001C9.16659 10.5139 9.35974 10.0475 9.70356 9.70372C10.0474 9.3599 10.5137 9.16675 10.9999 9.16675C11.4861 9.16675 11.9525 9.3599 12.2963 9.70372C12.6401 10.0475 12.8333 10.5139 12.8333 11.0001ZM15.5833 12.8334C16.0695 12.8334 16.5358 12.6403 16.8796 12.2964C17.2234 11.9526 17.4166 11.4863 17.4166 11.0001C17.4166 10.5139 17.2234 10.0475 16.8796 9.70372C16.5358 9.3599 16.0695 9.16675 15.5833 9.16675C15.097 9.16675 14.6307 9.3599 14.2869 9.70372C13.9431 10.0475 13.7499 10.5139 13.7499 11.0001C13.7499 11.4863 13.9431 11.9526 14.2869 12.2964C14.6307 12.6403 15.097 12.8334 15.5833 12.8334Z" fill="black"/>
<path fill-rule="evenodd" clip-rule="evenodd" d="M22 11C22 17.0748 17.0748 22 11 22C4.92525 22 0 17.0748 0 11C0 4.92525 4.92525 0 11 0C17.0748 0 22 4.92525 22 11ZM20.1667 11C20.1667 16.0627 16.0627 20.1667 11 20.1667C5.93725 20.1667 1.83333 16.0627 1.83333 11C1.83333 5.93725 5.93725 1.83333 11 1.83333C16.0627 1.83333 20.1667 5.93725 20.1667 11Z" fill="black"/>
</g>
<defs>
<clipPath id="clip0_40_157">
<rect width="22" height="22" fill="white"/>
</clipPath>
</defs>
</svg>
