<svg width="29" height="28" viewBox="0 0 29 28" fill="none" xmlns="http://www.w3.org/2000/svg">
<path d="M4.83341 18.0834C4.19247 18.0834 3.57779 17.8376 3.12457 17.4C2.67136 16.9624 2.41675 16.3689 2.41675 15.7501C2.41675 15.1312 2.67136 14.5378 3.12457 14.1002C3.57779 13.6626 4.19247 13.4167 4.83341 13.4167M24.1667 18.0834C24.8077 18.0834 25.4224 17.8376 25.8756 17.4C26.3288 16.9624 26.5834 16.3689 26.5834 15.7501C26.5834 15.1312 26.3288 14.5378 25.8756 14.1002C25.4224 13.6626 24.8077 13.4167 24.1667 13.4167M8.45841 8.16675V4.66675M20.5417 8.16675V4.66675" stroke="black" stroke-width="1.375" stroke-linecap="round" stroke-linejoin="round"/>
<path d="M8.45833 4.66671C9.12568 4.66671 9.66667 4.14437 9.66667 3.50004C9.66667 2.85571 9.12568 2.33337 8.45833 2.33337C7.79099 2.33337 7.25 2.85571 7.25 3.50004C7.25 4.14437 7.79099 4.66671 8.45833 4.66671Z" stroke="black" stroke-width="1.375" stroke-linecap="round" stroke-linejoin="round"/>
<path d="M20.5418 4.66671C21.2092 4.66671 21.7502 4.14437 21.7502 3.50004C21.7502 2.85571 21.2092 2.33337 20.5418 2.33337C19.8745 2.33337 19.3335 2.85571 19.3335 3.50004C19.3335 4.14437 19.8745 4.66671 20.5418 4.66671Z" stroke="black" stroke-width="1.375" stroke-linecap="round" stroke-linejoin="round"/>
<path d="M16.3125 8.16675H12.6875C9.27033 8.16675 7.56054 8.16675 6.49963 9.22725C5.43871 10.2877 5.4375 11.9946 5.4375 15.4082C5.4375 18.8219 5.4375 20.5287 6.49963 21.5892C7.56054 22.6497 9.27033 22.6497 12.6875 22.6497H13.926C14.883 22.6497 15.2202 22.8399 15.8799 23.5329C16.6085 24.2994 17.7371 25.3226 18.7582 25.5606C20.2094 25.8989 20.3725 25.4311 20.0487 24.0952C19.9568 23.7149 19.726 23.1071 19.9689 22.7524C20.1055 22.5541 20.3314 22.5051 20.7845 22.4071C21.4987 22.2531 22.0883 22.0011 22.5004 21.5892C23.5625 20.5276 23.5625 18.8219 23.5625 15.4082C23.5625 11.9946 23.5625 10.2877 22.5004 9.22725C21.4395 8.16675 19.7297 8.16675 16.3125 8.16675Z" stroke="black" stroke-width="1.375" stroke-linecap="round" stroke-linejoin="round"/>
<path d="M11.4792 17.5C12.1679 18.2082 13.2651 18.6667 14.5 18.6667C15.7349 18.6667 16.8321 18.2082 17.5208 17.5M10.8859 12.8334H10.875M18.1359 12.8334H18.125" stroke="black" stroke-width="1.375" stroke-linecap="round" stroke-linejoin="round"/>
</svg>
