<svg width="26" height="25" viewBox="0 0 26 25" fill="none" xmlns="http://www.w3.org/2000/svg">
<path d="M17.3333 11.4583C19.1316 11.4583 20.5724 10.0624 20.5724 8.33325C20.5724 6.60409 19.1316 5.20825 17.3333 5.20825C15.5349 5.20825 14.0833 6.60409 14.0833 8.33325C14.0833 10.0624 15.5349 11.4583 17.3333 11.4583ZM8.66659 11.4583C10.4649 11.4583 11.9058 10.0624 11.9058 8.33325C11.9058 6.60409 10.4649 5.20825 8.66659 5.20825C6.86825 5.20825 5.41659 6.60409 5.41659 8.33325C5.41659 10.0624 6.86825 11.4583 8.66659 11.4583ZM8.66659 13.5416C6.14242 13.5416 1.08325 14.7603 1.08325 17.1874V19.7916H16.2499V17.1874C16.2499 14.7603 11.1908 13.5416 8.66659 13.5416ZM17.3333 13.5416C17.0191 13.5416 16.6616 13.5624 16.2824 13.5937C17.5391 14.4687 18.4166 15.6458 18.4166 17.1874V19.7916H24.9166V17.1874C24.9166 14.7603 19.8574 13.5416 17.3333 13.5416Z" fill="black"/>
</svg>
