<svg width="23" height="22" viewBox="0 0 23 22" fill="none" xmlns="http://www.w3.org/2000/svg">
<path d="M4.7915 17.2058V16.2892H6.34017V9.02458C6.34017 7.82681 6.73628 6.77356 7.5285 5.86483C8.32073 4.95611 9.32506 4.39022 10.5415 4.16717V3.66667C10.5415 3.41183 10.6345 3.1955 10.8204 3.01767C11.0063 2.83922 11.2321 2.75 11.4979 2.75C11.7637 2.75 11.9902 2.83922 12.1774 3.01767C12.3646 3.19611 12.4582 3.41244 12.4582 3.66667V4.16717C13.6746 4.39022 14.6789 4.95642 15.4712 5.86575C16.2634 6.77508 16.6595 7.82833 16.6595 9.0255V16.2882H18.2082V17.2049L4.7915 17.2058ZM11.497 19.6029C11.0702 19.6029 10.706 19.4578 10.4045 19.1675C10.1029 18.8772 9.95213 18.5289 9.95213 18.1225H13.0475C13.0475 18.5319 12.8958 18.8809 12.5923 19.1693C12.2882 19.4578 11.9231 19.6029 11.497 19.6029ZM7.2985 16.2892H15.7021V9.0255C15.7021 7.91144 15.2929 6.963 14.4745 6.18017C13.6561 5.39733 12.6645 5.00622 11.4998 5.00683C10.3351 5.00744 9.34359 5.39856 8.52517 6.18017C7.70675 6.96178 7.29787 7.91022 7.2985 9.0255V16.2892Z" fill="black"/>
</svg>
