<svg width="21" height="19" viewBox="0 0 21 19" fill="none" xmlns="http://www.w3.org/2000/svg">
<path d="M17.0494 15.9553L11.5702 10.9978C11.1327 11.3351 10.6295 11.5961 10.0608 11.7808C9.49203 11.9655 8.92036 12.0579 8.34578 12.0579C6.94461 12.0579 5.7587 11.619 4.78803 10.7413C3.81736 9.86364 3.33203 8.79094 3.33203 7.52321C3.33203 6.25549 3.81678 5.18226 4.78628 4.30351C5.75578 3.42476 6.94111 2.98485 8.34228 2.9838C9.74345 2.98274 10.9299 3.42185 11.9018 4.30113C12.8736 5.18041 13.3595 6.25364 13.3595 7.52084C13.3595 8.07078 13.2519 8.60305 13.0367 9.11763C12.8214 9.63221 12.5385 10.0724 12.1879 10.4381L17.6672 15.3948L17.0494 15.9553ZM8.34666 11.2654C9.50749 11.2654 10.4875 10.9039 11.2867 10.1808C12.0858 9.45778 12.4854 8.57085 12.4854 7.52005C12.4854 6.46924 12.0858 5.58257 11.2867 4.86005C10.4875 4.13752 9.50749 3.77599 8.34666 3.77546C7.18582 3.77494 6.20553 4.13646 5.40578 4.86005C4.60603 5.58363 4.20645 6.4703 4.20703 7.52005C4.20761 8.5698 4.6072 9.45646 5.40578 10.18C6.20436 10.9036 7.18436 11.2652 8.34578 11.2646" fill="black"/>
</svg>
