<svg width="26" height="24" viewBox="0 0 26 24" fill="none" xmlns="http://www.w3.org/2000/svg">
<path d="M21.1087 20.154L14.3248 13.892C13.7832 14.318 13.1602 14.6477 12.4561 14.881C11.7519 15.1144 11.0441 15.231 10.3327 15.231C8.59797 15.231 7.12969 14.6767 5.92791 13.568C4.72613 12.4594 4.12524 11.1044 4.12524 9.50305C4.12524 7.90171 4.72541 6.54605 5.92574 5.43605C7.12608 4.32605 8.59363 3.77038 10.3284 3.76905C12.0632 3.76771 13.5322 4.32238 14.7354 5.43305C15.9386 6.54371 16.5402 7.89938 16.5402 9.50005C16.5402 10.1947 16.407 10.867 16.1405 11.517C15.874 12.167 15.5237 12.723 15.0897 13.185L21.8735 19.446L21.1087 20.154ZM10.3338 14.23C11.771 14.23 12.9844 13.7734 13.9738 12.86C14.9633 11.9467 15.458 10.8264 15.458 9.49904C15.458 8.17171 14.9633 7.05171 13.9738 6.13905C12.9844 5.22638 11.771 4.76971 10.3338 4.76905C8.89661 4.76838 7.68291 5.22505 6.69274 6.13905C5.70258 7.05305 5.20786 8.17305 5.20858 9.49904C5.2093 10.825 5.70402 11.945 6.69274 12.859C7.68147 13.773 8.8948 14.2297 10.3327 14.229" fill="black"/>
</svg>
