<svg width="29" height="29" viewBox="0 0 29 29" fill="none" xmlns="http://www.w3.org/2000/svg">
<path d="M6.0415 22.6804V21.4721H7.99417V11.896C7.99417 10.3172 8.49362 8.92878 9.4925 7.73092C10.4914 6.53306 11.7577 5.78711 13.2915 5.49308V4.83333C13.2915 4.49742 13.4087 4.21225 13.6431 3.97783C13.8775 3.74261 14.1623 3.625 14.4974 3.625C14.8325 3.625 15.1181 3.74261 15.3541 3.97783C15.5902 4.21306 15.7082 4.49822 15.7082 4.83333V5.49308C17.2419 5.78711 18.5083 6.53346 19.5072 7.73212C20.5061 8.93079 21.0055 10.3192 21.0055 11.8972V21.4709H22.9582V22.6792L6.0415 22.6804ZM14.4962 25.8402C13.9581 25.8402 13.4989 25.6489 13.1187 25.2662C12.7385 24.8836 12.5484 24.4244 12.5484 23.8888H16.4513C16.4513 24.4285 16.26 24.8884 15.8773 25.2687C15.4939 25.6489 15.0335 25.8402 14.4962 25.8402ZM9.2025 21.4721H19.7984V11.8972C19.7984 10.4287 19.2824 9.1785 18.2505 8.14658C17.2186 7.11467 15.9684 6.59911 14.4998 6.59992C13.0313 6.60072 11.7811 7.11628 10.7492 8.14658C9.71725 9.17689 9.2017 10.4271 9.2025 11.8972V21.4721Z" fill="black"/>
</svg>
