<svg width="20" height="21" viewBox="0 0 20 21" fill="none" xmlns="http://www.w3.org/2000/svg">
<g clip-path="url(#clip0_43_1050)">
<path fill-rule="evenodd" clip-rule="evenodd" d="M14.1667 2.625C14.6087 2.625 15.0326 2.80937 15.3452 3.13756C15.6577 3.46575 15.8333 3.91087 15.8333 4.375V5.25H16.6667C16.8877 5.25 17.0996 5.34219 17.2559 5.50628C17.4122 5.67038 17.5 5.89294 17.5 6.125C17.5 6.35706 17.4122 6.57962 17.2559 6.74372C17.0996 6.90781 16.8877 7 16.6667 7V16.625C16.8877 16.625 17.0996 16.7172 17.2559 16.8813C17.4122 17.0454 17.5 17.2679 17.5 17.5C17.5 17.7321 17.4122 17.9546 17.2559 18.1187C17.0996 18.2828 16.8877 18.375 16.6667 18.375H11.25V14.4375C11.25 14.0894 11.1183 13.7556 10.8839 13.5094C10.6495 13.2633 10.3315 13.125 10 13.125C9.66848 13.125 9.35054 13.2633 9.11612 13.5094C8.8817 13.7556 8.75 14.0894 8.75 14.4375V18.375H3.33333C3.11232 18.375 2.90036 18.2828 2.74408 18.1187C2.5878 17.9546 2.5 17.7321 2.5 17.5C2.5 17.2679 2.5878 17.0454 2.74408 16.8813C2.90036 16.7172 3.11232 16.625 3.33333 16.625V7C3.11232 7 2.90036 6.90781 2.74408 6.74372C2.5878 6.57962 2.5 6.35706 2.5 6.125C2.5 5.89294 2.5878 5.67038 2.74408 5.50628C2.90036 5.34219 3.11232 5.25 3.33333 5.25H4.16667V4.375C4.16667 3.91087 4.34226 3.46575 4.65482 3.13756C4.96738 2.80937 5.39131 2.625 5.83333 2.625H14.1667ZM6.66667 11.375C6.44565 11.375 6.23369 11.4672 6.07741 11.6313C5.92113 11.7954 5.83333 12.0179 5.83333 12.25V13.125C5.83333 13.3571 5.92113 13.5796 6.07741 13.7437C6.23369 13.9078 6.44565 14 6.66667 14C6.88768 14 7.09964 13.9078 7.25592 13.7437C7.4122 13.5796 7.5 13.3571 7.5 13.125V12.25C7.5 12.0179 7.4122 11.7954 7.25592 11.6313C7.09964 11.4672 6.88768 11.375 6.66667 11.375ZM13.3333 11.375C13.1292 11.375 12.9322 11.4537 12.7797 11.5961C12.6272 11.7385 12.5297 11.9348 12.5058 12.1476L12.5 12.25V13.125C12.5002 13.348 12.5816 13.5625 12.7274 13.7247C12.8732 13.8869 13.0725 13.9845 13.2845 13.9975C13.4965 14.0106 13.7053 13.9382 13.8682 13.795C14.0311 13.6519 14.1357 13.4488 14.1608 13.2274L14.1667 13.125V12.25C14.1667 12.0179 14.0789 11.7954 13.9226 11.6313C13.7663 11.4672 13.5543 11.375 13.3333 11.375ZM6.66667 7.875C6.46256 7.87503 6.26555 7.95371 6.11302 8.09613C5.96049 8.23854 5.86305 8.43478 5.83917 8.64763L5.83333 8.75V9.625C5.83357 9.84802 5.9149 10.0625 6.06071 10.2247C6.20651 10.3869 6.40579 10.4845 6.61783 10.4975C6.82986 10.5106 7.03865 10.4382 7.20153 10.295C7.3644 10.1519 7.46908 9.94883 7.49417 9.72737L7.5 9.625V8.75C7.5 8.51794 7.4122 8.29538 7.25592 8.13128C7.09964 7.96719 6.88768 7.875 6.66667 7.875ZM10 7.875C9.79589 7.87503 9.59889 7.95371 9.44636 8.09613C9.29383 8.23854 9.19638 8.43478 9.1725 8.64763L9.16667 8.75V9.625C9.1669 9.84802 9.24823 10.0625 9.39404 10.2247C9.53985 10.3869 9.73913 10.4845 9.95116 10.4975C10.1632 10.5106 10.372 10.4382 10.5349 10.295C10.6977 10.1519 10.8024 9.94883 10.8275 9.72737L10.8333 9.625V8.75C10.8333 8.51794 10.7455 8.29538 10.5893 8.13128C10.433 7.96719 10.221 7.875 10 7.875ZM13.3333 7.875C13.1123 7.875 12.9004 7.96719 12.7441 8.13128C12.5878 8.29538 12.5 8.51794 12.5 8.75V9.625C12.5 9.85706 12.5878 10.0796 12.7441 10.2437C12.9004 10.4078 13.1123 10.5 13.3333 10.5C13.5543 10.5 13.7663 10.4078 13.9226 10.2437C14.0789 10.0796 14.1667 9.85706 14.1667 9.625V8.75C14.1667 8.51794 14.0789 8.29538 13.9226 8.13128C13.7663 7.96719 13.5543 7.875 13.3333 7.875ZM14.1667 4.375H5.83333V5.25H14.1667V4.375Z" fill="#89EAEF"/>
</g>
<defs>
<clipPath id="clip0_43_1050">
<rect width="20" height="21" fill="white"/>
</clipPath>
</defs>
</svg>
