<svg width="26" height="26" viewBox="0 0 26 26" fill="none" xmlns="http://www.w3.org/2000/svg">
<path d="M13 2.64062C10.9511 2.64062 8.94823 3.24819 7.24464 4.38649C5.54105 5.5248 4.21327 7.14271 3.42919 9.03564C2.64511 10.9286 2.43996 13.0115 2.83968 15.021C3.2394 17.0305 4.22604 18.8764 5.67482 20.3252C7.1236 21.774 8.96947 22.7606 10.979 23.1603C12.9885 23.56 15.0714 23.3549 16.9644 22.5708C18.8573 21.7867 20.4752 20.459 21.6135 18.7554C22.7518 17.0518 23.3594 15.0489 23.3594 13C23.3562 10.2535 22.2637 7.62044 20.3216 5.67838C18.3796 3.73632 15.7465 2.64385 13 2.64062ZM13 22.1406C11.1922 22.1406 9.42491 21.6045 7.92175 20.6001C6.41858 19.5958 5.247 18.1682 4.55517 16.498C3.86334 14.8277 3.68232 12.9899 4.03501 11.2168C4.38771 9.44364 5.25827 7.81494 6.53661 6.5366C7.81495 5.25826 9.44365 4.3877 11.2168 4.03501C12.9899 3.68232 14.8277 3.86333 16.498 4.55516C18.1682 5.247 19.5958 6.41857 20.6002 7.92174C21.6045 9.42491 22.1406 11.1922 22.1406 13C22.1379 15.4234 21.174 17.7468 19.4604 19.4604C17.7468 21.174 15.4234 22.1379 13 22.1406ZM19.2969 13C19.2969 13.1616 19.2327 13.3166 19.1184 13.4309C19.0041 13.5452 18.8491 13.6094 18.6875 13.6094H13C12.8384 13.6094 12.6834 13.5452 12.5691 13.4309C12.4548 13.3166 12.3906 13.1616 12.3906 13V7.3125C12.3906 7.15088 12.4548 6.99589 12.5691 6.88161C12.6834 6.76733 12.8384 6.70312 13 6.70312C13.1616 6.70312 13.3166 6.76733 13.4309 6.88161C13.5452 6.99589 13.6094 7.15088 13.6094 7.3125V12.3906H18.6875C18.8491 12.3906 19.0041 12.4548 19.1184 12.5691C19.2327 12.6834 19.2969 12.8384 19.2969 13Z" fill="black"/>
</svg>
