<svg width="22" height="22" viewBox="0 0 22 22" fill="none" xmlns="http://www.w3.org/2000/svg">
<path d="M11.0002 20.1667C5.93741 20.1667 1.8335 16.0628 1.8335 11C1.8335 5.93729 5.93741 1.83337 11.0002 1.83337C16.0629 1.83337 20.1668 5.93729 20.1668 11C20.1668 16.0628 16.0629 20.1667 11.0002 20.1667ZM11.0002 18.3334C12.9451 18.3334 14.8103 17.5608 16.1856 16.1855C17.5609 14.8102 18.3335 12.945 18.3335 11C18.3335 9.05512 17.5609 7.18986 16.1856 5.81459C14.8103 4.43932 12.9451 3.66671 11.0002 3.66671C9.05524 3.66671 7.18998 4.43932 5.81471 5.81459C4.43945 7.18986 3.66683 9.05512 3.66683 11C3.66683 12.945 4.43945 14.8102 5.81471 16.1855C7.18998 17.5608 9.05524 18.3334 11.0002 18.3334ZM7.3335 11.9167H14.6668C14.6668 12.8892 14.2805 13.8218 13.5929 14.5094C12.9053 15.1971 11.9726 15.5834 11.0002 15.5834C10.0277 15.5834 9.09507 15.1971 8.40744 14.5094C7.7198 13.8218 7.3335 12.8892 7.3335 11.9167ZM7.3335 10.0834C6.96882 10.0834 6.61909 9.93851 6.36122 9.68065C6.10336 9.42278 5.9585 9.07305 5.9585 8.70837C5.9585 8.3437 6.10336 7.99396 6.36122 7.7361C6.61909 7.47824 6.96882 7.33337 7.3335 7.33337C7.69817 7.33337 8.04791 7.47824 8.30577 7.7361C8.56363 7.99396 8.7085 8.3437 8.7085 8.70837C8.7085 9.07305 8.56363 9.42278 8.30577 9.68065C8.04791 9.93851 7.69817 10.0834 7.3335 10.0834ZM14.6668 10.0834C14.3022 10.0834 13.9524 9.93851 13.6946 9.68065C13.4367 9.42278 13.2918 9.07305 13.2918 8.70837C13.2918 8.3437 13.4367 7.99396 13.6946 7.7361C13.9524 7.47824 14.3022 7.33337 14.6668 7.33337C15.0315 7.33337 15.3812 7.47824 15.6391 7.7361C15.897 7.99396 16.0418 8.3437 16.0418 8.70837C16.0418 9.07305 15.897 9.42278 15.6391 9.68065C15.3812 9.93851 15.0315 10.0834 14.6668 10.0834Z" fill="black"/>
</svg>
