<svg width="22" height="22" viewBox="0 0 22 22" fill="none" xmlns="http://www.w3.org/2000/svg">
<path d="M12.4447 15.8316L7.76056 13.2769C7.31093 13.7232 6.73922 14.0264 6.11752 14.1483C5.49581 14.2702 4.85194 14.2053 4.26708 13.9617C3.68221 13.7182 3.18254 13.307 2.83105 12.7799C2.47956 12.2528 2.29199 11.6334 2.29199 10.9999C2.29199 10.3664 2.47956 9.747 2.83105 9.21991C3.18254 8.69281 3.68221 8.28158 4.26708 8.03806C4.85194 7.79453 5.49581 7.72961 6.11752 7.85149C6.73922 7.97336 7.31093 8.27658 7.76056 8.7229L12.4447 6.16815C12.2841 5.41441 12.4001 4.62802 12.7716 3.9528C13.1431 3.27757 13.7452 2.75863 14.4679 2.49088C15.1906 2.22312 15.9855 2.22444 16.7072 2.49459C17.429 2.76475 18.0294 3.28568 18.3987 3.96213C18.7679 4.63858 18.8813 5.42535 18.7182 6.17856C18.555 6.93176 18.1262 7.60107 17.5101 8.06409C16.8941 8.52711 16.1319 8.7529 15.363 8.70016C14.5942 8.64743 13.87 8.3197 13.3229 7.7769L8.63873 10.3316C8.73242 10.7719 8.73242 11.227 8.63873 11.6672L13.3229 14.2229C13.87 13.6801 14.5942 13.3524 15.363 13.2996C16.1319 13.2469 16.8941 13.4727 17.5101 13.9357C18.1262 14.3987 18.555 15.068 18.7182 15.8212C18.8813 16.5744 18.7679 17.3612 18.3987 18.0377C18.0294 18.7141 17.429 19.235 16.7072 19.5052C15.9855 19.7754 15.1906 19.7767 14.4679 19.5089C13.7452 19.2412 13.1431 18.7222 12.7716 18.047C12.4001 17.3718 12.2841 16.5854 12.4447 15.8316Z" fill="black"/>
</svg>
