<svg width="22" height="22" viewBox="0 0 22 22" fill="none" xmlns="http://www.w3.org/2000/svg">
<g clip-path="url(#clip0_40_168)">
<path d="M20.625 2.06011L15.1202 2.06013V0.689941C15.1202 0.310098 14.8125 0.00244141 14.4327 0.00244141C14.0528 0.00244141 13.7452 0.310098 13.7452 0.689941V2.05979H8.24519V0.689941C8.24519 0.310098 7.93753 0.00244141 7.55769 0.00244141C7.17784 0.00244141 6.87019 0.310098 6.87019 0.689941V2.05979H1.375C0.615656 2.05979 0 2.67544 0 3.43479V20.6223C0 21.3816 0.615656 21.9973 1.375 21.9973H20.625C21.3843 21.9973 22 21.3816 22 20.6223V3.43479C22 2.67576 21.3843 2.06011 20.625 2.06011ZM20.625 20.6223H1.375V3.43479H6.87019V4.12744C6.87019 4.50726 7.17784 4.81494 7.55769 4.81494C7.93753 4.81494 8.24519 4.50726 8.24519 4.12744V3.43513H13.7452V4.12778C13.7452 4.50763 14.0528 4.81528 14.4327 4.81528C14.8125 4.81528 15.1202 4.50763 15.1202 4.12778V3.43513H20.625V20.6223ZM15.8125 10.9976H17.1875C17.567 10.9976 17.875 10.6896 17.875 10.3101V8.93511C17.875 8.55561 17.567 8.24761 17.1875 8.24761H15.8125C15.433 8.24761 15.125 8.55561 15.125 8.93511V10.3101C15.125 10.6896 15.433 10.9976 15.8125 10.9976ZM15.8125 16.4973H17.1875C17.567 16.4973 17.875 16.1896 17.875 15.8098V14.4348C17.875 14.0553 17.567 13.7473 17.1875 13.7473H15.8125C15.433 13.7473 15.125 14.0553 15.125 14.4348V15.8098C15.125 16.19 15.433 16.4973 15.8125 16.4973ZM11.6875 13.7473H10.3125C9.933 13.7473 9.625 14.0553 9.625 14.4348V15.8098C9.625 16.1896 9.933 16.4973 10.3125 16.4973H11.6875C12.067 16.4973 12.375 16.1896 12.375 15.8098V14.4348C12.375 14.0556 12.067 13.7473 11.6875 13.7473ZM11.6875 8.24761H10.3125C9.933 8.24761 9.625 8.55561 9.625 8.93511V10.3101C9.625 10.6896 9.933 10.9976 10.3125 10.9976H11.6875C12.067 10.9976 12.375 10.6896 12.375 10.3101V8.93511C12.375 8.55526 12.067 8.24761 11.6875 8.24761ZM6.1875 8.24761H4.8125C4.433 8.24761 4.125 8.55561 4.125 8.93511V10.3101C4.125 10.6896 4.433 10.9976 4.8125 10.9976H6.1875C6.567 10.9976 6.875 10.6896 6.875 10.3101V8.93511C6.875 8.55526 6.567 8.24761 6.1875 8.24761ZM6.1875 13.7473H4.8125C4.433 13.7473 4.125 14.0553 4.125 14.4348V15.8098C4.125 16.1896 4.433 16.4973 4.8125 16.4973H6.1875C6.567 16.4973 6.875 16.1896 6.875 15.8098V14.4348C6.875 14.0556 6.567 13.7473 6.1875 13.7473Z" fill="black"/>
</g>
<defs>
<clipPath id="clip0_40_168">
<rect width="22" height="22" fill="white"/>
</clipPath>
</defs>
</svg>
