<svg width="24" height="25" viewBox="0 0 24 25" fill="none" xmlns="http://www.w3.org/2000/svg">
<path d="M8 9.37508H16M8 13.5417H14M18 4.16675C18.7956 4.16675 19.5587 4.49599 20.1213 5.08204C20.6839 5.66809 21 6.46295 21 7.29175V15.6251C21 16.4539 20.6839 17.2487 20.1213 17.8348C19.5587 18.4208 18.7956 18.7501 18 18.7501H13L8 21.8751V18.7501H6C5.20435 18.7501 4.44129 18.4208 3.87868 17.8348C3.31607 17.2487 3 16.4539 3 15.6251V7.29175C3 6.46295 3.31607 5.66809 3.87868 5.08204C4.44129 4.49599 5.20435 4.16675 6 4.16675H18Z" stroke="black" stroke-width="1.83333" stroke-linecap="round" stroke-linejoin="round"/>
</svg>
