<svg width="22" height="22" viewBox="0 0 22 22" fill="none" xmlns="http://www.w3.org/2000/svg">
<rect width="22" height="22" fill="#F5FAFA"/>
<path d="M12.8333 13.75V15.5833C12.8333 15.8264 12.7368 16.0596 12.5648 16.2315C12.3929 16.4034 12.1598 16.5 11.9167 16.5H5.5L2.75 19.25V10.0833C2.75 9.84022 2.84658 9.60706 3.01849 9.43515C3.19039 9.26324 3.42355 9.16667 3.66667 9.16667H5.5M19.25 12.8333L16.5 10.0833H10.0833C9.84022 10.0833 9.60706 9.98676 9.43515 9.81485C9.26324 9.64294 9.16667 9.40978 9.16667 9.16667V3.66667C9.16667 3.42355 9.26324 3.19039 9.43515 3.01849C9.60706 2.84658 9.84022 2.75 10.0833 2.75H18.3333C18.5764 2.75 18.8096 2.84658 18.9815 3.01849C19.1534 3.19039 19.25 3.42355 19.25 3.66667V12.8333Z" stroke="black" stroke-width="1.83333" stroke-linecap="round" stroke-linejoin="round"/>
</svg>
