<svg width="23" height="22" viewBox="0 0 23 22" fill="none" xmlns="http://www.w3.org/2000/svg">
<path d="M7.66667 8.25008H15.3333M7.66667 11.9167H13.4167M17.25 3.66675C18.0125 3.66675 18.7438 3.95648 19.2829 4.4722C19.8221 4.98793 20.125 5.6874 20.125 6.41675V13.7501C20.125 14.4794 19.8221 15.1789 19.2829 15.6946C18.7438 16.2104 18.0125 16.5001 17.25 16.5001H12.4583L7.66667 19.2501V16.5001H5.75C4.9875 16.5001 4.25624 16.2104 3.71707 15.6946C3.1779 15.1789 2.875 14.4794 2.875 13.7501V6.41675C2.875 5.6874 3.1779 4.98793 3.71707 4.4722C4.25624 3.95648 4.9875 3.66675 5.75 3.66675H17.25Z" stroke="black" stroke-width="1.83333" stroke-linecap="round" stroke-linejoin="round"/>
</svg>
