<svg width="8" height="9" viewBox="0 0 8 9" fill="none" xmlns="http://www.w3.org/2000/svg">
<path d="M7.5 0.841773L5.49825 0.841781V0.28125C5.49825 0.125859 5.38637 0 5.24825 0C5.11013 0 4.99825 0.125859 4.99825 0.28125V0.841641H2.99825V0.28125C2.99825 0.125859 2.88637 0 2.74825 0C2.61013 0 2.49825 0.125859 2.49825 0.28125V0.841641H0.5C0.223875 0.841641 0 1.0935 0 1.40414V8.43539C0 8.74602 0.223875 8.99789 0.5 8.99789H7.5C7.77612 8.99789 8 8.74602 8 8.43539V1.40414C8 1.09363 7.77612 0.841773 7.5 0.841773ZM7.5 8.43539H0.5V1.40414H2.49825V1.6875C2.49825 1.84288 2.61013 1.96875 2.74825 1.96875C2.88637 1.96875 2.99825 1.84288 2.99825 1.6875V1.40428H4.99825V1.68764C4.99825 1.84303 5.11013 1.96889 5.24825 1.96889C5.38637 1.96889 5.49825 1.84303 5.49825 1.68764V1.40428H7.5V8.43539ZM5.75 4.49802H6.25C6.388 4.49802 6.5 4.37202 6.5 4.21677V3.65427C6.5 3.49902 6.388 3.37302 6.25 3.37302H5.75C5.612 3.37302 5.5 3.49902 5.5 3.65427V4.21677C5.5 4.37202 5.612 4.49802 5.75 4.49802ZM5.75 6.74788H6.25C6.388 6.74788 6.5 6.62202 6.5 6.46663V5.90413C6.5 5.74888 6.388 5.62288 6.25 5.62288H5.75C5.612 5.62288 5.5 5.74888 5.5 5.90413V6.46663C5.5 6.62216 5.612 6.74788 5.75 6.74788ZM4.25 5.62288H3.75C3.612 5.62288 3.5 5.74888 3.5 5.90413V6.46663C3.5 6.62202 3.612 6.74788 3.75 6.74788H4.25C4.388 6.74788 4.5 6.62202 4.5 6.46663V5.90413C4.5 5.74902 4.388 5.62288 4.25 5.62288ZM4.25 3.37302H3.75C3.612 3.37302 3.5 3.49902 3.5 3.65427V4.21677C3.5 4.37202 3.612 4.49802 3.75 4.49802H4.25C4.388 4.49802 4.5 4.37202 4.5 4.21677V3.65427C4.5 3.49888 4.388 3.37302 4.25 3.37302ZM2.25 3.37302H1.75C1.612 3.37302 1.5 3.49902 1.5 3.65427V4.21677C1.5 4.37202 1.612 4.49802 1.75 4.49802H2.25C2.388 4.49802 2.5 4.37202 2.5 4.21677V3.65427C2.5 3.49888 2.388 3.37302 2.25 3.37302ZM2.25 5.62288H1.75C1.612 5.62288 1.5 5.74888 1.5 5.90413V6.46663C1.5 6.62202 1.612 6.74788 1.75 6.74788H2.25C2.388 6.74788 2.5 6.62202 2.5 6.46663V5.90413C2.5 5.74902 2.388 5.62288 2.25 5.62288Z" fill="black"/>
</svg>
