<svg width="17" height="15" viewBox="0 0 17 15" fill="none" xmlns="http://www.w3.org/2000/svg">
<path d="M14.575 0.916667C14.3917 0.366667 13.8417 0 13.2917 0H3.20833C2.56667 0 2.10833 0.366667 1.925 0.916667L0 6.41667V13.75C0 14.2083 0.458333 14.6667 0.916667 14.6667H1.83333C2.38333 14.6667 2.75 14.2083 2.75 13.75V12.8333H13.75V13.75C13.75 14.2083 14.2083 14.6667 14.6667 14.6667H15.5833C16.0417 14.6667 16.5 14.2083 16.5 13.75V6.41667L14.575 0.916667ZM3.48333 1.83333H12.925L13.9333 4.58333H2.56667L3.48333 1.83333ZM14.6667 11H1.83333V6.41667H14.6667V11ZM4.125 7.33333C4.85833 7.33333 5.5 7.975 5.5 8.70833C5.5 9.44167 4.85833 10.0833 4.125 10.0833C3.39167 10.0833 2.75 9.44167 2.75 8.70833C2.75 7.975 3.39167 7.33333 4.125 7.33333ZM12.375 7.33333C13.1083 7.33333 13.75 7.975 13.75 8.70833C13.75 9.44167 13.1083 10.0833 12.375 10.0833C11.6417 10.0833 11 9.44167 11 8.70833C11 7.975 11.6417 7.33333 12.375 7.33333Z" fill="#89EAEF"/>
</svg>
