<svg width="12" height="17" viewBox="0 0 12 17" fill="none" xmlns="http://www.w3.org/2000/svg">
<path d="M10.7609 5.92682H12V17H10.7609V8.96364C10.113 8.84 9.50564 8.60818 8.93065 8.27591C8.35565 7.94364 7.86974 7.55727 7.45671 7.10909L6.9546 9.48136L8.76058 11.1814V17H7.14087V12.3636L5.32679 10.6636L3.81236 17H2.06307C2.06307 17 4.59792 4.80636 4.62221 4.70591C4.7113 4.335 4.88947 4.04909 5.18911 3.86364C5.48876 3.655 5.78841 3.55455 6.09615 3.55455C6.412 3.55455 6.70354 3.62409 6.9708 3.76318C7.24615 3.89455 7.45671 4.08773 7.61058 4.335L8.46903 5.59455C8.70389 6.01182 9.01973 6.375 9.41656 6.66864C9.81339 6.96227 10.2669 7.18636 10.7609 7.34091V5.92682ZM3.53701 3.77864L2.60567 3.59318C2.14406 3.47727 1.72293 3.57 1.3423 3.81727C0.969765 4.06455 0.743006 4.40455 0.66202 4.85273L0.00603693 7.92818C-0.0182587 8.15227 0.0303327 8.35318 0.15991 8.53864C0.289486 8.72409 0.459556 8.82455 0.66202 8.85545L2.4518 9.18773L3.53701 3.77864ZM7.14087 0C6.25002 0 5.52115 0.695455 5.52115 1.54545C5.52115 2.39545 6.25002 3.09091 7.14087 3.09091C8.03171 3.09091 8.76058 2.40318 8.76058 1.54545C8.76058 0.687727 8.03981 0 7.14087 0Z" fill="#90D5D9"/>
</svg>
